# xmcd
#
# Track frame offsets: 
#        150
#        12735
#        24162
#        36417
#        48141
#        59578
#        69805
#        81458
#        93927
#        105787
#        117735
#        129818
#        143344
#        155740
#        167494
#        179391
#        190814
#        202867
#        214218
#        225733
#        238182
#        249669
#        261701
#        274229
#
# Disc length: 3813 seconds
#
# Revision: 2
# Processed by: cddbd v1.5.2PL0 Copyright (c) Steve Scherf et al.
# Submitted via: ExactAudioCopyFreeDBPlugin 1.0
#
DISCID=520ee318
DTITLE=Big Joe Turner - Big Joe Turner:  All the Classic Hits, 1938-19
DTITLE=52 [JSP Records]
DYEAR=2003
DGENRE=Rhythm and Blues
TTITLE0=Hollywood Bed
TTITLE1=Howlin' Winds
TTITLE2=Radar Blues
TTITLE3=Trouble Blues
TTITLE4=Wine-O-Baby Boogie
TTITLE5=B and O Blues
TTITLE6=Christmas Date Boogie
TTITLE7=Tell Me Pretty Baby
TTITLE8=Old Piney Brown is Gone
TTITLE9=Baby Won't You Marry Me
TTITLE10=I Love Ya, I Love Ya, I Love Ya
TTITLE11=Born to Gamble
TTITLE12=Messin' Around
TTITLE13=Mardi Gras Boogie
TTITLE14=My Heart Belongs to You
TTITLE15=So Many Women Blues
TTITLE16=I Don't Dig It
TTITLE17=Rainy Weather Blues
TTITLE18=Feelin So Sad
TTITLE19=Boogie Woogie Baby
TTITLE20=Married Woman Blues
TTITLE21=Moody Baby
TTITLE22=Wish I Had a Dollar
TTITLE23=Fuzzy Wuzzy Honey
EXTD=
EXTT0=
EXTT1=
EXTT2=
EXTT3=
EXTT4=
EXTT5=
EXTT6=
EXTT7=
EXTT8=
EXTT9=
EXTT10=
EXTT11=
EXTT12=
EXTT13=
EXTT14=
EXTT15=
EXTT16=
EXTT17=
EXTT18=
EXTT19=
EXTT20=
EXTT21=
EXTT22=
EXTT23=
PLAYORDER=
